HIERARCHY
ROOT Hips
{
	OFFSET	0.00	0.00	0.00
	CHANNELS 6 Xposition Yposition Zposition Zrotation Xrotation Yrotation
	JOINT LeftUpLeg
	{
		OFFSET	 0.126116	-0.014019	-0.065224
		CHANNELS 3 Zrotation Xrotation Yrotation
		JOINT LeftLeg
		{
			OFFSET	 0.000000	 0.000000	 0.569914
			CHANNELS 3 Zrotation Xrotation Yrotation
			JOINT LeftFoot
			{
				OFFSET	 0.000000	 0.000000	 0.544423
				CHANNELS 3 Zrotation Xrotation Yrotation
				JOINT LeftToeBase
				{
					OFFSET	 0.000000	 0.000000	 0.207117
					CHANNELS 3 Zrotation Xrotation Yrotation
					End Site
					{
						OFFSET	 0.000000	 0.000000	 0.207117
					}
				}
			}
		}
	}
	JOINT RightUpLeg
	{
		OFFSET	-0.124023	-0.008373	-0.065224
		CHANNELS 3 Zrotation Xrotation Yrotation
		JOINT RightLeg
		{
			OFFSET	 0.000000	 0.000000	 0.570047
			CHANNELS 3 Zrotation Xrotation Yrotation
			JOINT RightFoot
			{
				OFFSET	 0.000000	 0.000000	 0.544354
				CHANNELS 3 Zrotation Xrotation Yrotation
				JOINT RightToeBase
				{
					OFFSET	 0.000000	 0.000000	 0.207540
					CHANNELS 3 Zrotation Xrotation Yrotation
					End Site
					{
						OFFSET	 0.000000	 0.000000	 0.207540
					}
				}
			}
		}
	}
	JOINT Spine
	{
		OFFSET	 0.000184	-0.007763	 0.117403
		CHANNELS 3 Zrotation Xrotation Yrotation
		JOINT Spine1
		{
			OFFSET	 0.000000	 0.000000	 0.137269
			CHANNELS 3 Zrotation Xrotation Yrotation
			JOINT Spine2
			{
				OFFSET	 0.000000	 0.000000	 0.156879
				CHANNELS 3 Zrotation Xrotation Yrotation
				JOINT LeftShoulder
				{
					OFFSET	 0.080501	-0.002496	 0.160144
					CHANNELS 3 Zrotation Xrotation Yrotation
					JOINT LeftArm
					{
						OFFSET	 0.000000	 0.000000	 0.164363
						CHANNELS 3 Zrotation Xrotation Yrotation
						JOINT LeftForeArm
						{
							OFFSET	 0.000000	 0.000000	 0.364576
							CHANNELS 3 Zrotation Xrotation Yrotation
							JOINT LeftHand
							{
								OFFSET	 0.000000	 0.000000	 0.360812
								CHANNELS 3 Zrotation Xrotation Yrotation
								JOINT LeftHandIndex1
								{
									OFFSET	 0.000000	 0.000000	 0.086006
									CHANNELS 3 Zrotation Xrotation Yrotation
									JOINT LeftHandIndex2
									{
										OFFSET	 0.000000	 0.000000	 0.047237
										CHANNELS 3 Zrotation Xrotation Yrotation
										JOINT LeftHandIndex3
										{
											OFFSET	-0.004284	-0.000551	 0.038165
											CHANNELS 3 Zrotation Xrotation Yrotation
											End Site
											{
												OFFSET	-0.004284	-0.000551	 0.038165
											}
										}
									}
								}
							}
						}
					}
				}
				JOINT Neck
				{
					OFFSET	 0.000000	 0.000000	 0.176489
					CHANNELS 3 Zrotation Xrotation Yrotation
					JOINT Head
					{
						OFFSET	 0.000000	-0.001747	 0.077940
						CHANNELS 3 Zrotation Xrotation Yrotation
						End Site
						{
							OFFSET	 0.000000	-0.001747	 0.077940
						}
					}
				}
				JOINT RightShoulder
				{
					OFFSET	-0.080363	 0.000306	 0.159706
					CHANNELS 3 Zrotation Xrotation Yrotation
					JOINT RightArm
					{
						OFFSET	 0.000000	 0.000000	 0.164196
						CHANNELS 3 Zrotation Xrotation Yrotation
						JOINT RightForeArm
						{
							OFFSET	 0.000000	 0.000000	 0.365611
							CHANNELS 3 Zrotation Xrotation Yrotation
							JOINT RightHand
							{
								OFFSET	 0.000000	 0.000000	 0.360648
								CHANNELS 3 Zrotation Xrotation Yrotation
								JOINT RightHandIndex1
								{
									OFFSET	 0.000000	 0.000000	 0.069977
									CHANNELS 3 Zrotation Xrotation Yrotation
									JOINT RightHandIndex2
									{
										OFFSET	 0.000000	 0.000000	 0.052305
										CHANNELS 3 Zrotation Xrotation Yrotation
										JOINT RightHandIndex3
										{
											OFFSET	 0.009002	-0.000782	 0.042196
											CHANNELS 3 Zrotation Xrotation Yrotation
											End Site
											{
												OFFSET	 0.009002	-0.000782	 0.042196
											}
										}
									}
								}
							}
						}
					}
				}
			}
		}
	}
}
MOTION
Frames:    10
Frame Time: 0.03333334
-0.665955	-0.064285	 1.252376	-161.059400	 7.129035	 9.082994	 8.961349	-12.266200	 163.048200	-9.035612	-29.686460	-3.521676	-80.731100	 77.123620	 77.301190	-2.385833	 28.452760	 0.000004	 12.088550	-46.327060	-178.964200	-31.056740	-59.910560	-17.619920	 29.956170	 36.937740	-40.571720	 2.384659	 28.388700	-0.000001	 27.625260	-17.585060	-15.393190	 46.022450	 25.996190	 0.671195	-6.925694	-3.394764	-3.181178	-91.776200	 78.527430	-180.000000	 16.941050	 48.783470	-48.975510	-5.888976	-0.079149	-3.714855	 7.596900	-3.444707	-4.123798	-4.131196	 21.524690	 0.986298	-5.167839	 0.733520	 3.519257	-1.378229	 35.397820	-2.634230	-14.154750	 16.460520	-7.373971	-25.804270	 3.664334	 5.420844	 89.782070	 78.203920	-180.000000	 2.062118	 62.852970	 0.728933	-4.392766	-0.140499	 3.677381	 101.047500	-17.300750	-2.486572	 5.715225	 19.176060	-3.692089	 5.027514	 0.245388	-9.378011	-2.350882	 35.473990	 5.254307
-0.664158	-0.061630	 1.254712	-161.716900	 7.110264	 9.694824	 10.072960	-12.324730	 162.372400	-8.621403	-29.379080	-3.283106	-88.844440	 78.870520	 84.450500	-2.385833	 28.452760	 0.000004	 12.734220	-46.062470	-179.562400	-24.027590	-60.223290	-11.443080	 49.041300	 48.660920	-50.989300	 2.384659	 28.388700	-0.000001	 27.121550	-19.835410	-17.175920	 46.759800	 29.307680	-0.490400	-6.924395	-4.457257	-3.045017	-91.776220	 78.527420	-180.000000	 17.239530	 48.633970	-49.321300	-5.131141	-0.085629	-3.714284	 8.505171	-2.838819	-4.440284	-4.131196	 21.524690	 0.986298	-5.167839	 0.733520	 3.519257	-1.378229	 35.397820	-2.634230	-14.007410	 16.260160	-7.777005	-25.910570	 3.401176	 5.123901	 89.782230	 78.203900	 179.999900	 2.485681	 62.841340	 0.536065	-5.602261	-0.150742	 3.676936	 100.417900	-15.863100	-0.348971	 5.715225	 19.176060	-3.692089	 5.027514	 0.245388	-9.378011	-2.350882	 35.473990	 5.254307
-0.658656	-0.058032	 1.254277	-163.500700	 7.667487	 10.207010	 13.019980	-13.301490	 161.941800	-7.402075	-29.168460	-2.662320	-103.325300	 79.363700	 97.478750	-2.385833	 28.452760	 0.000004	 9.379984	-46.968140	 178.624300	-19.147160	-60.058170	-7.158451	 55.549180	 54.288590	-53.804620	 2.384659	 28.388700	-0.000001	 28.706500	-19.811010	-17.784300	 46.373390	 28.958770	 1.754525	-6.889323	-3.793750	-3.777585	-91.776210	 78.527400	-180.000000	 17.086840	 48.427530	-49.289420	-4.072422	-0.094404	-3.712506	 9.203516	-2.429804	-4.748380	-4.131196	 21.524690	 0.986298	-5.167839	 0.733520	 3.519257	-1.378229	 35.397820	-2.634230	-13.996420	 16.635990	-7.708636	-25.820770	 3.058467	 4.798581	 89.782010	 78.203850	-179.999900	 2.252441	 63.217870	 1.026193	-7.523984	-0.165157	 3.671386	 98.056420	-16.899030	 1.966684	 5.715225	 19.176060	-3.692089	 5.027514	 0.245388	-9.378011	-2.350882	 35.473990	 5.254307
-0.652345	-0.051164	 1.254842	-163.822100	 8.246350	 8.158149	 14.727630	-12.505460	 164.045500	-5.167441	-27.720380	-1.496872	-155.305200	 78.928180	 146.506900	-2.385833	 28.452760	 0.000004	 15.242140	-45.976980	-176.621600	-18.207110	-59.353470	-6.295075	 69.856540	 55.647750	-65.556370	 2.384659	 28.388700	-0.000001	 29.457080	-20.765190	-15.394090	 46.599910	 30.955750	 0.392543	-6.744914	-4.928884	-4.048820	-91.776150	 78.527450	 180.000000	 17.177520	 48.386940	-49.507760	-3.330493	-0.101056	-3.715906	 9.809481	-2.003659	-5.047915	-4.131196	 21.524690	 0.986298	-5.167839	 0.733520	 3.519257	-1.378229	 35.397820	-2.634230	-13.598830	 17.146620	-8.051742	-25.686390	 3.259218	 6.275709	 89.782130	 78.203900	 180.000000	 0.594672	 63.154090	 3.163312	-8.850966	-0.175816	 3.670726	 96.074410	-16.952460	 5.058737	 5.715225	 19.176060	-3.692089	 5.027514	 0.245388	-9.378011	-2.350882	 35.473990	 5.254307
-0.643377	-0.043041	 1.255108	-163.791800	 7.384366	 6.624438	 13.931020	-9.202313	 165.044100	-3.298527	-25.444010	-0.578540	-162.794700	 77.657370	 152.253100	-2.385833	 28.452760	 0.000004	 18.370670	-43.030270	-174.128300	-17.339040	-58.136920	-5.474923	 74.227490	 57.357320	-67.765590	 2.384659	 28.388700	-0.000001	 30.697910	-17.817170	-12.662260	 45.779210	 28.264330	-0.362606	-6.312043	-4.429436	-2.886508	-91.776120	 78.527420	 179.999900	 17.458210	 47.834370	-49.731620	-2.890123	-0.104197	-3.715940	 10.260110	-1.634452	-5.297557	-4.131196	 21.524690	 0.986298	-5.167839	 0.733520	 3.519257	-1.378229	 35.397820	-2.634230	-12.984400	 17.059080	-8.919031	-25.724490	 3.824759	 8.446464	 89.782090	 78.203890	 180.000000	-2.715697	 63.229710	 6.734339	-8.660757	-0.173083	 3.671746	 95.160260	-22.805210	 9.070395	 5.715225	 19.176060	-3.692089	 5.027514	 0.245388	-9.378011	-2.350882	 35.473990	 5.254307
-0.627273	-0.028118	 1.255101	-163.572300	 7.606678	 8.591950	 20.200120	-9.666883	 161.654100	-8.311814	-22.590530	-2.451639	-70.658960	 85.564780	 64.332050	-2.385833	 28.452760	 0.000004	 19.116270	-41.052900	-176.236100	-17.212920	-55.832320	-5.229691	 80.896500	 58.236900	-72.810170	 2.384659	 28.388700	-0.000001	 29.325210	-19.147840	-14.820460	 46.444730	 28.920140	-0.860514	-6.183105	-4.156065	-2.949622	-91.776230	 78.527420	-180.000000	 18.634080	 47.487980	-50.522350	-2.817682	-0.104549	-3.720241	 10.213970	-1.392305	-5.470234	-4.131196	 21.524690	 0.986298	-5.167839	 0.733520	 3.519257	-1.378229	 35.397820	-2.634230	-12.685730	 17.407980	-9.267458	-25.735110	 3.222424	 9.086584	 89.782100	 78.203890	 180.000000	-4.223588	 62.646870	 8.907770	-4.976809	-0.144824	 3.689052	 99.999190	-30.230310	 15.323720	 5.715225	 19.176060	-3.692089	 5.027514	 0.245388	-9.378011	-2.350882	 35.473990	 5.254307
-0.614557	-0.016162	 1.253429	-162.505100	 7.903756	 9.757577	 23.691590	-9.859741	 159.442100	-8.790634	-19.909110	-2.338540	-16.791580	 73.331280	 11.364390	-2.385833	 28.452760	 0.000004	 18.733200	-39.557800	-177.776000	-17.235010	-54.292640	-5.150968	 83.416570	 59.770080	-74.273090	 2.384659	 28.388700	-0.000001	 28.001290	-19.264280	-15.587750	 46.660530	 28.115880	-1.267785	-6.215862	-3.758461	-2.804778	-91.776210	 78.527420	-180.000000	 19.760430	 47.063130	-51.062850	-3.244366	-0.100587	-3.724456	 9.387518	-1.550213	-5.394475	-4.131196	 21.524690	 0.986298	-5.167839	 0.733520	 3.519257	-1.378229	 35.397820	-2.634230	-13.001550	 17.655590	-8.287434	-25.468790	 2.981529	 8.627236	 89.782180	 78.203870	 179.999900	-4.255633	 62.158990	 9.528906	-3.905715	-0.137307	 3.699808	 103.205400	-35.020180	 18.725490	 5.715225	 19.176060	-3.692089	 5.027514	 0.245388	-9.378011	-2.350882	 35.473990	 5.254307
-0.599039	-0.001076	 1.252286	-160.877900	 7.601763	 8.953066	 26.244600	-7.000731	 158.911600	-7.684934	-14.920430	-1.480688	-12.937480	 58.118680	 8.530557	-2.385833	 28.452760	 0.000004	 18.984960	-36.456300	-177.472600	-17.393470	-52.511680	-5.160318	 84.777170	 60.622360	-74.568480	 2.384659	 28.388700	-0.000001	 27.438110	-17.938220	-14.246370	 46.593980	 27.402440	-3.067646	-6.636828	-4.343177	-1.518147	-91.776210	 78.527400	-180.000000	 21.251300	 45.959510	-51.570460	-4.271310	-0.091995	-3.733451	 8.009772	-2.008718	-5.117944	-4.131196	 21.524690	 0.986298	-5.167839	 0.733520	 3.519257	-1.378229	 35.397820	-2.634230	-13.977120	 17.667330	-6.665875	-25.418030	 3.046586	 7.328620	 89.782130	 78.203870	 180.000000	-3.710966	 61.880380	 9.891354	-3.733413	-0.135625	 3.705432	 106.295800	-40.334380	 20.439300	 5.715225	 19.176060	-3.692089	 5.027514	 0.245388	-9.378011	-2.350882	 35.473990	 5.254307
-0.579576	 0.018521	 1.253327	-159.877000	 7.772717	 7.282245	 25.686730	-0.601988	 159.750000	-3.832153	-6.244454	-0.204585	-12.813640	 44.389350	 6.630510	-2.385833	 28.452760	 0.000004	 19.210650	-33.563610	-176.445400	-16.528810	-50.288920	-4.335598	 93.329580	 57.432220	-82.615080	 2.384659	 28.388700	-0.000001	 26.742220	-19.861070	-14.279280	 47.619170	 32.365800	-6.185458	-7.835433	-6.787439	-0.332736	-91.776230	 78.527420	-180.000000	 22.359420	 44.808840	-51.744540	-4.503696	-0.089627	-3.739238	 8.962658	-1.770294	-5.155829	-4.131196	 21.524690	 0.986298	-5.167839	 0.733520	 3.519257	-1.378229	 35.397820	-2.634230	-14.846170	 17.679150	-8.534581	-27.041060	 1.735983	 6.549861	 89.782170	 78.203870	 179.999900	-0.096336	 61.824790	 8.371609	-4.287874	-0.139941	 3.711874	 106.960800	-39.825170	 15.738360	 5.715225	 19.176060	-3.692089	 5.027514	 0.245388	-9.378011	-2.350882	 35.473990	 5.254307
-0.557172	 0.039140	 1.251944	-159.112600	 6.561322	 6.412088	 21.680210	 6.985192	 159.478800	 0.899081	-0.510379	 0.025375	-20.308150	 32.100020	 14.863170	-2.385833	 28.452760	 0.000004	 17.406330	-30.171900	-177.866800	-17.371590	-48.130440	-4.828056	 93.364400	 59.205130	-81.638040	 2.384659	 28.388700	-0.000001	 26.911990	-16.557990	-14.218420	 46.428600	 30.796990	-6.327328	-8.823781	-7.303006	 1.764146	-91.776190	 78.527430	 180.000000	 23.289780	 44.344500	-50.775910	-3.653875	-0.096844	-3.747764	 9.862338	-1.442285	-5.376441	-4.131196	 21.524690	 0.986298	-5.167839	 0.733520	 3.519257	-1.378229	 35.397820	-2.634230	-16.230670	 16.906110	-8.530676	-28.209620	 1.321643	 4.730262	 89.782090	 78.203900	-180.000000	 1.154599	 61.452030	 8.649471	-5.704497	-0.151539	 3.718987	 104.306400	-43.559970	 10.095330	 5.715225	 19.176060	-3.692089	 5.027514	 0.245388	-9.378011	-2.350882	 35.473990	 5.254307
